<svg width="602" height="430" viewBox="0 0 602 430" fill="none" xmlns="http://www.w3.org/2000/svg">
<path d="M198.2 215.6C198.2 242.5 176.4 264.3 149.5 264.3C122.6 264.3 100.8 242.5 100.8 215.6C100.8 188.7 122.6 166.9 149.5 166.9C176.4 166.8 198.2 188.7 198.2 215.6Z" fill="#298B29"/>
<path d="M456.9 215.6C456.9 242.5 435.1 264.3 408.2 264.3C381.3 264.3 359.5 242.5 359.5 215.6C359.5 188.7 381.3 166.9 408.2 166.9C435.1 166.8 456.9 188.7 456.9 215.6Z" fill="#298B29"/>
<path d="M408.2 138.5C399.6 138.5 391.3 139.9 383.6 142.5C376.6 128.3 368.1 111.3 357.9 91C357.5 90.2 357 89.5 356.4 88.9C363.2 71.9 367.8 60 367.8 60C367.9 59.7 368 59.4 368.1 59.1C372.3 59.4 377.5 60.1 384.3 61.3C387.6 61.9 390.4 50.4 389.3 48C387.5 44.1 377.9 43.8 375.9 43.6C369 42.9 344.7 42.8 339 44C334.4 45 330 45.9 327 50.2C325.2 52.8 326.5 56.7 329.2 58.2C332.4 60 341.5 59.4 348.3 59.1C349.2 59.1 350.1 59 350.9 59C349.3 62.9 346.9 69 344 76.5H202.8C205.4 68.5 207.5 63.2 212 53.5C217.4 41.9 225.6 41.8 238.5 42.9C240.8 43.1 242.9 43.3 244.9 43.3C249.5 43.5 253 39.9 253.1 35.5C253.2 31.1 249.7 27.4 245.3 27.3C243.6 27.3 241.8 27.1 239.9 26.9C228 25.8 208.1 24.1 197.6 46.6C190.2 62.4 188.6 67.7 182.8 87.5C179.4 98.9 174.7 114.8 166.8 140.2C161.3 138.9 155.5 138.2 149.6 138.2C107 138.2 72.5 172.7 72.5 215.3C72.5 257.9 107 292.4 149.6 292.4C192.2 292.4 226.7 257.9 226.7 215.3C226.7 184.3 208.4 157.6 182 145.4C185.6 134 188.5 124.5 191 116.4C261.4 190.4 284.1 213.2 292.8 220.2C294 221.7 295.7 222.8 297.7 223.2C298.2 223.3 298.7 223.3 299.1 223.3C299.3 223.3 299.5 223.3 299.7 223.3C312.4 223.3 322.9 223.2 331.7 223.2C335.7 262.1 368.5 292.4 408.4 292.4C451 292.4 485.5 257.9 485.5 215.3C485.3 173 450.8 138.5 408.2 138.5ZM210.9 215.6C210.9 249.6 183.4 277.1 149.4 277.1C115.4 277.1 88 249.5 88 215.6C88 181.6 115.5 154.1 149.5 154.1C153.8 154.1 158 154.5 162 155.4C157.2 170.3 151.5 188 144.5 209.1C143.1 213.3 145.4 217.8 149.6 219.2C150.4 219.5 151.3 219.6 152.1 219.6C155.5 219.6 158.6 217.5 159.7 214.1C166.6 193.1 172.3 175.5 177.1 160.6C197.2 170.7 210.9 191.5 210.9 215.6ZM369 149.2C348.5 161.3 334.1 182.6 331.6 207.5C325.7 207.5 319.2 207.5 311.7 207.6C315.8 197.5 321.9 181.1 331.8 154.3C337.6 138.6 343.5 122.6 348.9 108.5C355.7 122.1 362.6 136.1 369 149.2ZM375.8 163.3C384.9 182.1 392.4 198.1 396.5 207.6C389.8 207.6 384.3 207.6 378.7 207.6C369.8 207.6 360.8 207.5 347.2 207.5C349.7 188.8 360.5 172.8 375.8 163.3ZM196.1 99C196.8 96.7 197.4 94.5 198 92.5H337.8C331.5 108.8 324 129 316.8 148.6C309.7 167.8 301.3 190.6 296.4 202.6C278.2 184.9 229.3 134 196.1 99ZM408.2 277.1C376.9 277.1 351.1 253.7 347.2 223.5C360.8 223.5 369.7 223.5 378.7 223.6C387 223.6 395.4 223.7 407.5 223.7C410.3 223.7 413 222.2 414.4 219.8C416.7 216.1 418.1 213.7 390.5 156.8C396.1 155.1 402 154.2 408.2 154.2C442.2 154.2 469.7 181.7 469.7 215.7C469.7 249.5 442.2 277.1 408.2 277.1Z" fill="#211C1D"/>
<path d="M0 327.9H8.2L41 417.6L74 327.9H82.1L45 427.3H37L0 327.9Z" fill="#211C1D"/>
<path d="M153.7 420.2V427.3H96.5V327.8H153V334.9H104V373.5H149.5V380.6H104V420.1H153.7V420.2Z" fill="#211C1D"/>
<path d="M226.6 420.2V427.3H172.2V327.8H179.7V420.2H226.6V420.2Z" fill="#211C1D"/>
<path d="M229.5 377.6C229.5 349.2 252.1 326.3 280.8 326.3C309.5 326.3 332.1 349.2 332.1 377.6C332.1 406 309.5 428.9 280.8 428.9C252.1 428.9 229.5 406 229.5 377.6ZM324.5 377.6C324.5 353.2 305.3 333.6 280.7 333.6C256.1 333.6 236.9 353.2 236.9 377.6C236.9 402 256.1 421.6 280.7 421.6C305.3 421.7 324.5 402.1 324.5 377.6Z" fill="#211C1D"/>
<path d="M445.7 380.5C445.7 410.9 424.5 429.4 396.7 429.4C365.4 429.4 343 406.4 343 377.8C343 349 365.9 325.9 395.1 325.9C414.1 325.9 430.2 335.3 438.6 348.6L419.3 359.7C415.2 353.2 406.2 348.1 395 348.1C378.2 348.1 365.7 360.5 365.7 377.9C365.7 394.8 377.6 407.2 397 407.2C410.2 407.2 418.9 401.4 422.4 391.9H395.8V372H445.7V380.5V380.5Z" fill="#211C1D"/>
<path d="M454.2 377.6C454.2 348.3 477.4 325.9 505.9 325.9C534.5 325.9 557.6 348.4 557.6 377.6C557.6 406.9 534.4 429.3 505.9 429.3C477.4 429.3 454.2 406.9 454.2 377.6ZM534.9 377.6C534.9 359.8 522.1 348.1 505.9 348.1C489.7 348.1 476.9 359.9 476.9 377.6C476.9 395.4 489.7 407.2 505.9 407.2C522.1 407.2 534.9 395.4 534.9 377.6Z" fill="#211C1D"/>
<path d="M552.7 11.3C544.2 0.3 543.2 0 557.6 0C566.1 0 570.8 4.4 574.5 9.7C579.4 16.6 585.4 17.2 573.3 20.2C566.8 21.9 560.3 21.1 552.7 11.3Z" fill="#298B29"/>
<path d="M426.2 100.5C391 114.6 389.3 116.9 400.2 79.2C406.6 56.8 421.7 47.9 438.5 41.9C460.4 34.2 466.4 18.9 465.3 52.9C464.6 71.3 457.8 87.9 426.2 100.5Z" fill="#298B29"/>
<path d="M482.5 89.9C473 67.7 471.5 66.7 495.7 73.1C510 76.9 515.9 86.3 519.9 96.9C525.1 110.7 534.9 114.3 513.3 114.1C501.6 114 491 109.8 482.5 89.9Z" fill="#298B29"/>
<path d="M489.1 35.2C470.8 27.2 469.3 27.5 487.4 17.6C498.2 11.7 507.1 14 515.6 18.1C526.6 23.4 534.5 20 521.4 32.2C514.3 38.8 505.6 42.3 489.1 35.2Z" fill="#298B29"/>
<path d="M536.2 63.5C518.3 64.3 517.2 65.1 527.9 49.9C534.3 40.9 542.4 39.3 550.8 39.2C561.8 39.2 566.8 33.3 561 48.3C557.9 56.5 552.3 62.8 536.2 63.5Z" fill="#298B29"/>
<path d="M591.9 23.8C595.3 15.8 595.2 15.2 599.5 23C602.1 27.6 601.1 31.5 599.4 35.2C597.1 40 598.7 43.4 593.3 37.8C590.5 34.7 588.9 30.9 591.9 23.8Z" fill="#298B29"/>
</svg>
